<svg version="1.2" xmlns="http://www.w3.org/2000/svg" viewBox="0 0 972 432" width="972" height="432">
	<title>brayjammin-ai</title>
	<style>
		.s0 { fill: #000000 } 
	</style>
	<g id="Layer 1">
	</g>
	<g id="Layer 2">
		<path id="&lt;Path&gt;" class="s0" d="m594.1 130.9h-13.1l-9.7 177.3-41.6-39.3-10.1 8.4 53.8 83.1 36.3 56-3.7-67.8z"/>
		<path id="&lt;Path&gt;" class="s0" d="m844 127.9l-12.2 145.8h33.1l-12.2-145.8z"/>
		<path id="&lt;Path&gt;" class="s0" d="m535.8 171l-30.6 84.1-48.7-98.3-26.9 15.8 69.3 99.8-21 57.6 7.5 3.3 80.4-148.8z"/>
		<path id="&lt;Compound Path&gt;" fill-rule="evenodd" class="s0" d="m274.6 233.6c0.3 3.4-0.2 7.1-1.5 10.4-1.3 3.3-3.2 6.1-5.1 8.3l-0.8 0.9-1.5 1.1c-9.7 7-19.4 13.9-29.1 20.8-9.7 6.9-19.4 13.8-29.2 20.6-9.7 6.9-19.6 13.7-29.4 20.5q-14.7 10.1-29.6 20l-20.6 13.6-2.8-24-32.3-273.4-85.7 97.3-0.5-0.4 85.7-126 12.8-19 4.7 23.7 41.5 269.7q4.8-3.4 9.7-6.7c9.9-6.6 19.8-13.3 29.7-19.9 9.9-6.6 19.9-13.1 29.9-19.6 9.1-5.9 18.2-11.9 27.3-17.8q-0.2-0.5-0.6-1c-1.9-3.4-5.9-7.4-10.2-11.1-8.7-7.4-19.2-14-29.8-19.8q-4.1-2.2-8.1-4.1l-8.6-4.2q-8.6-4.3-17-8.9-8.5-4.6-16.8-9.6c-5.5-3.3-11-6.7-16.4-10.5l2.5-5.9c6.5 1.2 12.7 2.8 19 4.5q9.3 2.5 18.5 5.4 9.2 2.9 18.2 6.2c3.1 1.1 6 2.1 9.1 3.3q4.8 1.9 9.3 3.9c12.3 5.7 24 11.9 35.5 20.3 2.8 2.1 5.7 4.4 8.4 7 2.8 2.6 5.5 5.5 8.1 9.3 1.3 1.8 2.5 3.9 3.5 6.4 1.1 2.5 2 5.4 2.2 8.7zm-26.4 1.2c0 0.2 0 0.3 0 0.4 0.1 0.2 0.1 0 0-0.4z"/>
		<path id="&lt;Path&gt;" class="s0" d="m574.5 117l6 5.9 22.2-18.2 6-4.9-5.9-5.1-22.3-19.1-6 5.7 14 18.2z"/>
		<path id="&lt;Path&gt;" class="s0" d="m855.4 121.6l6-5.8-14-17.5 14.1-18.3-6.1-5.7-22.3 19.1-5.9 5.1 6 4.9z"/>
		<path id="&lt;Path&gt;" class="s0" d="m212.7 228.1l-61.9-39.4 11.7 78.6z"/>
		<path id="&lt;Path&gt;" class="s0" d="m354.3 211.1q0.2-0.1 0.4-0.1l0.4-0.2q0.4-0.1 0.7-0.3l0.3-0.1q0.4 0.3 0.8 0.6l7.3-5.6c-4-7.1-9.2-13.7-16.6-18.9-1.7-1.4-3.8-2.5-5.9-3.5-2.2-1-4.5-1.8-6.9-2.3-4.9-1.1-10.3-0.8-15 0.7-4.8 1.5-9 4-12.5 6.9-2.6 2.2-4.9 4.6-7 7.1l-3-24.7-1.4-12.1-9.1 7.4-21.1 17.1 7.8 9.8 10.8-8.4-0.3 93.3 25.8-1.5q0.3 0.1 0.6 0.1 0.2 0 0.3 0c0.7-0.1 1.3-0.7 1.3-1.4v-63.4c0.7-1.6 5.6-11.7 15-13.5 7.7-1.5 16.4 2.8 26 12.7l0.6 0.6z"/>
		<path id="&lt;Path&gt;" class="s0" d="m837.3 252.6l-0.8-8.9-13.6 7.8q-1.9 1.1-3.8 1.7-1.2 0.3-2.2 0.4-0.1-0.5-0.2-1.6-0.3-2.3-0.3-6.2 0-2.3 0.2-5.4 0.1-3.3 0.3-6.8 0.2-3.6 0.5-7.4 0.3-3.8 0.5-7.1 0.2-3.4 0.4-6.2 0.2-2.9 0.2-4.6c0-4.2-0.4-7.8-1.2-10.9-0.8-3.3-1.8-6-3.2-8.2-1.6-2.5-3.6-4.4-5.8-5.7-5.4-3-11.5-2.3-17.3 1.6-3.1 2.2-6 5.4-8.9 10q-1.1 1.8-2.3 4-0.7-3.7-2.1-6.8c-1.2-2.7-2.8-5-4.8-6.8-2.5-2.2-5.6-3.3-9-3.3-3.4 0-6.9 1.2-10.3 3.5-3.1 2.1-6 5.4-8.8 9.9q-0.2 0.3-0.4 0.6c0-4.3-0.9-7.4-2.6-9.7-2-2.7-5.1-4.2-8.6-4.2-1.2 0-2.5 0.2-4.2 0.6q-2.1 0.5-4.7 1.4-2.5 0.8-5.5 2-3 1.1-6.2 2.6l-4.1 1.8 2.5 15.1 6.4-2.2q2.6-0.8 4.6-1.3 0.4-0.1 0.8-0.2 0.1 0.7 0.1 1.8 0 2.4-0.1 6.6-0.1 4.2-0.2 9.4-0.2 5.4-0.4 11.5-0.2 6.1-0.4 12.4-0.3 6.2-0.6 12.2-0.3 6-0.6 11.1l-0.4 5.8 7.1 0.6 14.5-2.3 0.2-4.7c0.3-5.2 0.8-10.3 1.6-15.4 0.8-5.1 1.8-10 2.9-14.6 1.2-4.6 2.6-8.9 4-12.9 1.4-3.8 2.9-7.1 4.4-9.9 1.4-2.6 2.8-4.5 4.1-5.8q0-0.1 0.1-0.2c0.3 0.9 0.7 2.7 0.7 5.7 0 1.9-0.1 4.4-0.2 7.3q-0.2 4.5-0.5 11.1-0.4 6.5-0.8 15.3-0.4 8.8-0.9 20.2l-0.2 5.6 7 0.6 14.4-2.3 0.3-4.7c0.2-5.2 0.8-10.3 1.6-15.4 0.8-5.1 1.8-10.1 3-14.8 1.2-4.6 2.6-9 4-13 1.5-3.9 3-7.3 4.5-10.1 1.4-2.6 2.8-4.6 4.1-6q0.1-0.1 0.2-0.2c0.3 0.8 0.7 2.5 0.7 5.4q0 1.9-0.3 5.7l-0.6 9q-0.4 5-0.6 10.6c-0.2 3.8-0.3 7.4-0.3 10.9 0 2.8 0 5.6 0.2 8.1 0.1 2.8 0.5 5.3 1 7.4 0.7 2.7 1.8 5 3.3 6.7 2 2.4 4.8 3.6 8.1 3.6 2 0 4-0.4 6.4-1.1 2-0.7 4.1-1.5 6.1-2.6q2.9-1.5 5.6-3.3c2-1.3 8.5-6.9 9.9-8.3 0 0 1.7-10.3 1.5-6.5z"/>
		<path id="&lt;Path&gt;" class="s0" d="m940.4 241.5l-9.1 6q-0.4 0.2-0.8 0.5-0.1-1.9-0.1-4.5 0-2.3 0.2-5.3 0.1-3.1 0.3-6.6 0.1-3.5 0.4-7.2 0.2-3.7 0.4-7 0.2-3.3 0.3-6 0.2-2.9 0.2-4.7c0-4.2-0.4-7.8-1.1-11-0.8-3.4-1.9-6.2-3.4-8.6-1.6-2.7-3.7-4.8-6.1-6.2-5.9-3.4-12.9-2.8-19.1 2.1q-2.7 2.2-5.3 5.7-0.6-2.3-1.8-4c-2.2-3.4-5.8-5.4-9.8-5.4-1.4 0-2.8 0.3-4.5 0.7-1.4 0.4-2.8 0.9-4.4 1.5q-2.2 0.9-4.8 2.1-2.6 1.1-5.4 2.5l-13.3 5.8 4.4 18.4 15.7-6.1q0.3-0.1 0.6-0.2 0 2-0.1 5 0 4.1-0.2 9.2-0.1 5.2-0.2 11.2-0.2 6-0.4 12.1-0.3 6.1-0.5 12-0.3 5.8-0.6 10.8l-0.4 7.6 9.2 0.8 14.9-2.7 0.3-6.3c0.2-4.9 0.6-9.9 1.3-14.8 0.8-5 1.7-9.8 2.8-14.3 1.1-4.5 2.3-8.7 3.7-12.6 1.3-3.7 2.7-7 4.1-9.7q0.2-0.4 0.4-0.8 0 2-0.2 5.3l-0.6 8.7q-0.3 4.8-0.5 10.1c-0.2 3.7-0.2 7.2-0.2 10.6 0 2.9 0 5.6 0.1 8 0.2 2.9 0.5 5.3 0.9 7.5 0.7 2.9 1.7 5.3 3.1 7.2 2.3 3 5.6 4.7 9.4 4.7 2.1 0 4.3-0.4 6.7-1.3 1.9-0.7 3.8-1.7 5.7-2.8q2.7-1.5 5.1-3.4c1.8-1.4 3.2-2.8 4.5-4.2l2.7-3.1z"/>
		<path id="&lt;Compound Path&gt;" fill-rule="evenodd" class="s0" d="m714.8 195.8c2.8 4.1 3.9 8.9 4 13 0 4.2-0.7 7.9-1.6 11.3-1.1 3.3-2.4 6.4-3.9 9.1-1.1 2-2.3 3.9-3.5 5.8l2 40.3-25.1-1.4 2.7-16.9q-6.4 5.2-13.4 9.5-7.4 4.6-15.7 8c-5.5 2.2-11.4 4.1-17.9 5-3.2 0.5-6.6 0.8-10.2 0.6-3.6-0.2-7.6-0.7-11.8-2.3-4.1-1.6-8.7-4.8-11.8-9.3-3.1-4.6-4.3-9.9-4.4-14.3 0-4.4 0.8-8.3 1.9-11.8 1.2-3.5 2.6-6.6 4.3-9.4 3.3-5.7 7.1-10.5 11.2-14.9 8.3-8.6 17.7-15.5 27.8-21.2 10.2-5.5 21-10.2 33.6-11.9 6.3-0.7 13.2-1 21 2.1 3.9 1.6 8 4.5 10.8 8.7zm-28.4 33.7c3.2-3.4 5.9-7 8-10.6 1-1.8 1.8-3.5 2.4-5.2 0.5-1.7 0.8-3.2 0.8-4.3-0.1-1.1-0.3-1.6-0.4-1.8-0.2-0.2-0.4-0.6-1.4-1-2-0.9-6-1.3-10-0.6-8.3 1.2-17.2 5-25.1 10-8 5.1-15.3 11.3-21.1 18.3-2.9 3.5-5.4 7.1-7.2 10.6-0.9 1.8-1.6 3.5-2.1 5-0.4 1.6-0.5 2.9-0.5 3.7 0.1 0.8 0.3 0.8 0.1 0.6-0.2-0.2-0.4 0 0.3 0.4 1.3 0.9 5.1 1.4 9.1 0.9 8-0.9 16.9-4.3 25-8.9 8.2-4.6 15.9-10.4 22.1-17.1z"/>
		<path id="&lt;Compound Path&gt;" fill-rule="evenodd" class="s0" d="m438.8 195.8c2.8 4.1 3.9 8.9 4 13 0 4.2-0.7 7.9-1.6 11.3-1.1 3.3-2.4 6.4-3.9 9.1-1.1 2-2.3 3.9-3.5 5.8l2 40.3-25.1-1.4 2.7-16.9q-6.4 5.2-13.4 9.5-7.4 4.6-15.7 8c-5.5 2.2-11.4 4.1-17.9 5-3.2 0.5-6.6 0.8-10.2 0.6-3.6-0.2-7.6-0.7-11.8-2.3-4.1-1.6-8.7-4.8-11.8-9.3-3.1-4.6-4.3-9.9-4.4-14.3 0-4.4 0.8-8.3 1.9-11.8 1.2-3.5 2.6-6.6 4.3-9.4 3.3-5.7 7.1-10.5 11.2-14.9 8.3-8.6 17.7-15.5 27.8-21.2 10.2-5.5 21-10.2 33.6-11.9 6.3-0.7 13.2-1 21 2.1 3.9 1.6 8 4.5 10.8 8.7zm-28.4 33.7c3.2-3.4 5.9-7 8-10.6 1-1.8 1.8-3.5 2.4-5.2 0.5-1.7 0.8-3.2 0.8-4.3-0.1-1.1-0.3-1.6-0.4-1.8-0.2-0.2-0.4-0.6-1.4-1-2-0.9-6-1.3-10-0.6-8.3 1.2-17.2 5-25.1 10-8 5.1-15.3 11.3-21.1 18.3-2.9 3.5-5.4 7.1-7.2 10.6-0.9 1.8-1.6 3.5-2.1 5-0.4 1.6-0.5 2.9-0.5 3.7 0.1 0.8 0.3 0.8 0.1 0.6-0.2-0.2-0.4 0 0.3 0.4 1.3 0.9 5.1 1.4 9.1 0.9 8-0.9 16.9-4.3 25-8.9 8.2-4.6 15.9-10.4 22.1-17.1z"/>
	</g>
</svg>